# xmcd
#
# Track frame offsets: 
#        182
#        14307
#        37507
#        62362
#        86657
#
# Disc length: 1438 seconds
#
# Revision: 1
# Processed by: cddbd v1.5.2PL0 Copyright (c) Steve Scherf et al.
# Submitted via: ExactAudioCopy v0.99pb4
#
DISCID=29059c05
DTITLE=Lexy and K-Paul - Let's Play
DYEAR=2002
DGENRE=House
TTITLE0=Let's Play (Short)
TTITLE1=Let's Play (Original)
TTITLE2=Let's Play (Lexy and K-Paul Remix)
TTITLE3=Let's Play (Autotune Remix)
TTITLE4=Let's Play (Lodown Remix)
EXTD=
EXTT0=
EXTT1=
EXTT2=
EXTT3=
EXTT4=
PLAYORDER=
